<svg width="31" height="31" viewBox="0 0 31 31" fill="none" xmlns="http://www.w3.org/2000/svg">
<g clip-path="url(#clip0_15955_952)">
<path d="M26.2826 0H4.71739C2.11609 0 0 2.11609 0 4.71739V26.2826C0 28.8839 2.11676 31 4.71739 31V30.9387C5.26798 31 6.26874 31 8.08696 31H26.2826C28.8839 31 31 28.8832 31 26.2826V4.71739C31 2.11609 28.8832 0 26.2826 0ZM29.6522 26.2826C29.6522 28.1406 28.1406 29.6522 26.2826 29.6522C26.2826 29.6522 4.86633 29.6522 4.71739 29.6522C2.85941 29.6522 1.34783 28.1406 1.34783 26.2826V4.71739C1.34783 2.85941 2.85941 1.34783 4.71739 1.34783H26.2826C28.1406 1.34783 29.6522 2.85941 29.6522 4.71739V26.2826Z" fill="#333232"/>
<path d="M15 5C9.486 5 5 9.486 5 15C5 20.514 9.486 25 15 25C20.514 25 25 20.514 25 15C25 9.486 20.514 5 15 5ZM15 23.6667C10.2213 23.6667 6.33333 19.7787 6.33333 15C6.33333 10.2213 10.2213 6.33333 15 6.33333C19.7787 6.33333 23.6667 10.2213 23.6667 15C23.6667 19.7787 19.7787 23.6667 15 23.6667Z" fill="#333232"/>
<path d="M15 9C11.6919 9 9 11.6919 9 15C9 18.3081 11.6919 21 15 21C18.3081 21 21 18.3081 21 15C21 11.6919 18.3081 9 15 9ZM15 19.6736C12.4228 19.6736 10.3264 17.5772 10.3264 15C10.3264 12.4228 12.4228 10.3264 15 10.3264C17.5772 10.3264 19.6736 12.4228 19.6736 15C19.6736 17.5772 17.5772 19.6736 15 19.6736Z" fill="#333232"/>
<path d="M25.5 7C26.3284 7 27 6.32843 27 5.5C27 4.67157 26.3284 4 25.5 4C24.6716 4 24 4.67157 24 5.5C24 6.32843 24.6716 7 25.5 7Z" fill="#333232"/>
</g>
<defs>
<clipPath id="clip0_15955_952">
<rect width="31" height="31" fill="white"/>
</clipPath>
</defs>
</svg>
