<svg width="31" height="31" viewBox="0 0 31 31" fill="none" xmlns="http://www.w3.org/2000/svg">
<path d="M17.9172 0H12.0828C5.97175 0 1 5.03039 1 11.2137V16.5328C1 21.1376 3.79592 25.2759 8 26.9614V30.4096C8 30.6434 8.13592 30.8548 8.34708 30.9492C8.42292 30.9835 8.50342 31 8.58333 31C8.72508 31 8.86567 30.9475 8.97475 30.8471L12.3575 27.7466H17.9172C24.0282 27.7466 29 22.7162 29 16.5328V11.2137C29 5.03039 24.0282 0 17.9172 0ZM27.8333 16.5328C27.8333 22.065 23.3854 26.5659 17.9172 26.5659H12.1323C11.9877 26.5659 11.8482 26.6202 11.7409 26.7188L9.16667 29.0784V26.5523C9.16667 26.302 9.01092 26.0788 8.77758 25.9962C4.82375 24.5811 2.16667 20.778 2.16667 16.5328V11.2137C2.16667 5.68155 6.61517 1.1807 12.0828 1.1807H17.9172C23.3854 1.1807 27.8333 5.68155 27.8333 11.2137V16.5328Z" fill="#333232"/>
<path d="M23.7258 17.9201L20.0281 15.5981C19.6238 15.3439 19.1425 15.2578 18.6714 15.352C18.1997 15.448 17.7942 15.7173 17.5313 16.1099L17.3574 16.3682C15.7571 15.8569 13.9924 15.2037 12.936 12.247L13.3733 11.8794C14.1242 11.2483 14.203 10.1443 13.5502 9.41716L10.6575 6.19991C10.4397 5.95735 10.0595 5.93234 9.80862 6.14232L7.99226 7.66864C6.39912 9.00766 7.14335 10.9883 7.38822 11.6392C7.39904 11.6683 7.41228 11.6962 7.42792 11.7235C7.4911 11.8329 8.99941 14.4353 11.4355 16.8341C13.8811 19.2429 18.2966 21.4672 18.432 21.5318C18.9361 21.8482 19.5035 22 20.0648 22C21.0503 22 22.0165 21.5329 22.5929 20.6767L23.9033 18.7257C24.0838 18.4553 24.0044 18.0952 23.7258 17.9201ZM21.5834 20.0427C21.0413 20.85 19.921 21.0792 19.0366 20.5278C18.9927 20.5057 14.6061 18.297 12.294 16.0198C10.1329 13.8914 8.69799 11.5269 8.50246 11.1971C8.02596 9.90519 8.11019 9.1112 8.78162 8.54698L10.1443 7.40224L12.6424 10.1803C12.8644 10.427 12.8385 10.7876 12.5846 11.0011L11.8464 11.6211C11.6665 11.7724 11.5955 12.0114 11.6659 12.2313C12.9245 16.1856 15.372 16.9621 17.1589 17.5292L17.4194 17.6124C17.6799 17.6973 17.9651 17.6002 18.1143 17.378L18.5408 16.7428C18.6287 16.6113 18.7635 16.5223 18.9199 16.4904C19.0769 16.4578 19.2369 16.488 19.3729 16.5735L22.5664 18.5786L21.5834 20.0427Z" fill="#333232"/>
<path d="M16.6607 10.0203C16.3849 9.94107 16.0982 10.101 16.0199 10.3764C15.9416 10.6513 16.1013 10.9376 16.3766 11.0158C17.1491 11.2353 17.7646 11.8508 17.9823 12.6226C18.0466 12.8504 18.2545 13 18.4811 13C18.5278 13 18.575 12.9938 18.6221 12.9808C18.8974 12.9032 19.0582 12.6174 18.9804 12.342C18.6657 11.227 17.7765 10.3371 16.6607 10.0203Z" fill="#333232"/>
<path d="M21.3995 13C21.4535 13 21.5081 12.9928 21.5627 12.9778C21.8819 12.888 22.0673 12.5568 21.9773 12.2388C21.2693 9.73381 19.2719 7.73601 16.764 7.02336C16.4454 6.93174 16.1136 7.11798 16.023 7.43598C15.9324 7.75397 16.1172 8.08514 16.4358 8.17557C18.546 8.77443 20.2265 10.4566 20.8223 12.564C20.8973 12.8275 21.1373 13 21.3995 13Z" fill="#333232"/>
<path d="M16.7607 4.02333C16.4431 3.93218 16.113 4.11626 16.0229 4.43377C15.9328 4.75009 16.1166 5.07951 16.4336 5.16946C19.9907 6.17918 22.8243 9.01355 23.8284 12.5657C23.9024 12.8278 24.1417 13 24.4026 13C24.4563 13 24.5106 12.9929 24.565 12.978C24.8819 12.8886 25.067 12.5592 24.9774 12.2429C23.8618 8.29512 20.7136 5.14623 16.7607 4.02333Z" fill="#333232"/>
</svg>
