<svg width="31" height="31" viewBox="0 0 31 31" fill="none" xmlns="http://www.w3.org/2000/svg">
<path d="M23.7129 7.12836L10.9068 15.1574C10.1821 15.6128 9.83916 16.5123 10.0726 17.3442L11.4573 22.297C11.5756 22.7193 11.9447 23 12.3695 23C12.3931 23 12.4171 22.9991 12.441 22.9973C12.8951 22.9638 13.2544 22.6195 13.3148 22.1606L13.6748 19.4449C13.7233 19.0795 13.8963 18.7396 14.1614 18.4884L24.7292 8.48852C25.0485 8.18708 25.0907 7.69347 24.8276 7.3404C24.564 6.98702 24.0851 6.89564 23.7129 7.12836ZM13.3164 17.5638C12.8416 18.0137 12.5322 18.6218 12.4453 19.2759L12.2707 20.5932L11.2656 16.998C11.1839 16.7068 11.3042 16.3918 11.5578 16.2325L20.9393 10.3506L13.3164 17.5638Z" fill="#333232"/>
<path d="M30.4957 2.33643C30.0973 2.00068 29.5477 1.90825 29.0608 2.09527L0.913064 12.894C0.355609 13.1078 -0.00282888 13.6298 1.68209e-05 14.2238C0.00292307 14.8183 0.366628 15.3374 0.927353 15.5464L7.50214 17.9867L10.0668 26.1893C10.2077 26.6402 10.5631 26.9906 11.0176 27.1265C11.4718 27.2624 11.9624 27.1652 12.3291 26.867L16.152 23.7677C16.3356 23.6188 16.5977 23.6115 16.7894 23.7499L23.6847 28.7284C23.9327 28.9077 24.2255 29 24.5216 29C24.6951 29 24.8697 28.9683 25.0373 28.9039C25.4906 28.7296 25.8202 28.3432 25.9189 27.8705L30.9702 3.70645C31.0763 3.19765 30.8945 2.67272 30.4957 2.33643ZM29.761 3.45687L24.7097 27.6208C24.6914 27.7081 24.6282 27.7444 24.5921 27.7583C24.5558 27.7723 24.484 27.7878 24.4106 27.7347L17.5151 22.756C17.2069 22.5334 16.8445 22.4229 16.4827 22.4229C16.088 22.4229 15.6939 22.5545 15.3718 22.8155L11.5481 25.9155C11.48 25.9709 11.4093 25.9611 11.3734 25.9503C11.3372 25.9394 11.2726 25.9087 11.2463 25.8247L8.59162 17.3343C8.53489 17.1529 8.39684 17.0077 8.21786 16.9413L1.36002 14.3959C1.25733 14.3576 1.23548 14.278 1.23517 14.2178C1.23487 14.1582 1.25594 14.0789 1.35766 14.0399L29.5055 3.24125C29.5056 3.24119 29.5058 3.24113 29.506 3.24107C29.5974 3.20596 29.665 3.2463 29.6972 3.2734C29.7296 3.3008 29.781 3.36101 29.761 3.45687Z" fill="#333232"/>
<path d="M25.6338 15.017C25.383 14.9302 25.1357 15.184 25.0813 15.5837L25.0107 16.1022C24.9562 16.5019 25.1154 16.8962 25.3661 16.983C25.3993 16.9945 25.4325 17 25.4652 17C25.679 17 25.8715 16.7631 25.9187 16.4164L25.9893 15.898C26.0437 15.4982 25.8845 15.1039 25.6338 15.017Z" fill="#333232"/>
<path d="M25.4503 18.0146C25.0733 17.9402 24.7022 18.1578 24.6205 18.5006L23.016 25.2299C22.9343 25.5728 23.1733 25.911 23.5497 25.9854C23.5996 25.9953 23.6494 26 23.6984 26C24.0196 26 24.3085 25.7968 24.3795 25.4995L25.984 18.7701C26.0657 18.4272 25.8267 18.089 25.4503 18.0146Z" fill="#333232"/>
</svg>
