<svg width="26" height="26" viewBox="0 0 26 26" fill="none" xmlns="http://www.w3.org/2000/svg">
<g clip-path="url(#clip0_15955_663)">
<path d="M9.75033 25.0715C10.3486 25.0715 10.8337 24.6558 10.8337 24.1429C10.8337 23.6301 10.3486 23.2144 9.75033 23.2144C9.15202 23.2144 8.66699 23.6301 8.66699 24.1429C8.66699 24.6558 9.15202 25.0715 9.75033 25.0715Z" stroke="#333232" stroke-linecap="round" stroke-linejoin="round"/>
<path d="M21.6663 25.0715C22.2647 25.0715 22.7497 24.6558 22.7497 24.1429C22.7497 23.6301 22.2647 23.2144 21.6663 23.2144C21.068 23.2144 20.583 23.6301 20.583 24.1429C20.583 24.6558 21.068 25.0715 21.6663 25.0715Z" stroke="#333232" stroke-linecap="round" stroke-linejoin="round"/>
<path d="M1.08301 0.928711H5.41634L8.31967 15.8486C8.41873 16.3616 8.69008 16.8225 9.08619 17.1504C9.48229 17.4783 9.97793 17.6526 10.4863 17.6426H21.0163C21.5247 17.6526 22.0204 17.4783 22.4165 17.1504C22.8126 16.8225 23.084 16.3616 23.183 15.8486L24.9163 6.5H6.49967" stroke="#333232" stroke-linecap="round" stroke-linejoin="round"/>
</g>
<defs>
<clipPath id="clip0_15955_663">
<rect width="26" height="26" fill="white"/>
</clipPath>
</defs>
</svg>
