<svg width="26" height="26" viewBox="0 0 26 26" fill="none" xmlns="http://www.w3.org/2000/svg">
<g clip-path="url(#clip0_15955_683)">
<path d="M12.5 12C15.5376 12 18 9.53757 18 6.5C18 3.46243 15.5376 1 12.5 1C9.46243 1 7 3.46243 7 6.5C7 9.53757 9.46243 12 12.5 12Z" stroke="#333232" stroke-linecap="round" stroke-linejoin="round"/>
<path d="M1.03653 24.9998H24.9635M1.03653 24.9998C1.01219 24.687 1 24.3734 1 24.0596C1 20.8612 2.26428 17.7938 4.51472 15.5322C6.76515 13.2706 9.81739 12 13 12C14.5758 12 16.1363 12.3119 17.5922 12.918C19.0481 13.524 20.371 14.4123 21.4853 15.5322C22.5996 16.652 23.4835 17.9815 24.0866 19.4446C24.6896 20.9078 25 22.4759 25 24.0596V24.0596C25 24.3734 24.9878 24.6871 24.9635 25" stroke="#333232" stroke-linecap="round" stroke-linejoin="round"/>
</g>
<defs>
<clipPath id="clip0_15955_683">
<rect width="26" height="26" fill="white"/>
</clipPath>
</defs>
</svg>
