<svg width="26" height="26" viewBox="0 0 26 26" fill="none" xmlns="http://www.w3.org/2000/svg">
<path fill-rule="evenodd" clip-rule="evenodd" d="M22.84 25.1429H3.08C1.93132 25.1429 1 24.1601 1 22.9481L3.08 9.77922C3.43256 7.89059 4.46736 7.58442 5.61604 7.58442H6.99508C7.77924 3.77204 10.153 1 12.96 1C15.767 1 18.1408 3.77204 18.9249 7.58442H20.304C21.4526 7.58442 22.4874 7.89059 22.84 9.77922L24.92 22.9481C24.92 24.1601 23.9887 25.1429 22.84 25.1429ZM12.96 2.0974C10.697 2.0974 8.7766 4.38988 8.06264 7.58442H17.8579C17.1434 4.38988 15.2236 2.0974 12.96 2.0974ZM21.8 9.77922C21.6398 9.03792 21.3024 8.68182 20.5676 8.68182H19.097C19.161 9.21735 19.2 9.7655 19.2 10.3279C19.2 10.6308 18.9676 10.8766 18.68 10.8766C18.3924 10.8766 18.16 10.6308 18.16 10.3279C18.16 9.76441 18.1241 9.21351 18.0555 8.68182H7.86452C7.7964 9.21351 7.76 9.76441 7.76 10.3279C7.76 10.6308 7.52756 10.8766 7.24 10.8766C6.95244 10.8766 6.72 10.6308 6.72 10.3279C6.72 9.7655 6.759 9.21735 6.82244 8.68182H5.35188C4.61764 8.68182 4.28068 9.03792 4.12 9.77922L2.04 22.9481C2.04 23.5538 2.50592 24.0455 3.08 24.0455H22.84C23.4141 24.0455 23.88 23.5538 23.88 22.9481L21.8 9.77922Z" fill="#333232"/>
</svg>
